<svg width="41" height="49" viewBox="0 0 41 49" fill="none" xmlns="http://www.w3.org/2000/svg">
<path d="M23 10C23 15.5228 21.866 21 18 21C14.134 21 10 18.5228 10 13C11 7 14.134 1.5 18 1.5C21.866 1.5 23 7 23 10Z" stroke="#95BF46" stroke-width="2"/>
<path d="M27 11.2821C27 16.6633 25.9532 22 22.3846 22C18.816 22 15 19.5864 15 14.2051C15.9231 8.35897 18.816 3 22.3846 3C25.9532 3 27 8.35897 27 11.2821Z" stroke="#95BF46" stroke-width="2"/>
<path d="M4 15.5L29 7L28 49L0 44.5L4 15.5Z" fill="#95BF46"/>
<path d="M29 7L32.5 10.5H36.5L41 46L28 49L29 7Z" fill="#D9D9D9"/>
<path d="M29 7L32.5 10.5H36.5L41 46L28 49L29 7Z" fill="#5E8E3E"/>
<path fill-rule="evenodd" clip-rule="evenodd" d="M16.5275 22.6131C17.7344 22.3989 19.1683 22.6516 20.3196 23.3814L21.7222 18.4724C19.7784 17.5968 17.6147 17.342 15.6538 17.6901C13.0704 18.1485 10.4675 19.7637 9.5962 22.8133C8.9132 25.2038 9.24874 27.2404 10.1627 28.9769C10.9668 30.5048 12.2002 31.7369 13.132 32.6677L13.132 32.6677L13.2322 32.7679C14.219 33.7546 14.4456 34.4211 14.4987 34.761C14.5507 35.0934 14.4877 35.4345 14.2639 35.882C14.1798 36.0503 13.72 36.5932 12.6803 36.7008C11.728 36.7993 10.0646 36.5315 7.78413 34.7269L7.09259 40.2594C9.24914 41.4387 11.3158 41.8686 13.1948 41.6742C15.78 41.4068 17.8202 39.9497 18.7361 38.118C19.2624 37.0655 19.6994 35.6566 19.4388 33.9891C19.1794 32.329 18.281 30.7455 16.7678 29.2323C15.7097 28.1743 15.004 27.4399 14.5873 26.6482C14.2513 26.0097 14.0868 25.2964 14.4038 24.1869C14.6075 23.474 15.2546 22.839 16.5275 22.6131Z" fill="black"/>
</svg>
