<svg width="150" height="150" viewBox="0 0 150 150" fill="none" xmlns="http://www.w3.org/2000/svg">
<mask id="mask0_210_134" style="mask-type:alpha" maskUnits="userSpaceOnUse" x="0" y="0" width="150" height="150">
<rect width="150" height="150" fill="#D9D9D9"/>
</mask>
<g mask="url(#mask0_210_134)">
<path d="M25 125C21.5625 125 18.6198 123.776 16.1719 121.328C13.724 118.88 12.5 115.938 12.5 112.5V37.5C12.5 34.0625 13.724 31.1198 16.1719 28.6719C18.6198 26.224 21.5625 25 25 25H62.5L75 37.5H125C128.438 37.5 131.38 38.724 133.828 41.1719C136.276 43.6198 137.5 46.5625 137.5 50V112.5C137.5 115.938 136.276 118.88 133.828 121.328C131.38 123.776 128.438 125 125 125H25ZM25 37.5V112.5H125V50H69.8438L57.3438 37.5H25Z" fill="#486780"/>
</g>
</svg>
