<svg width="26" height="26" viewBox="0 0 26 26" fill="none" xmlns="http://www.w3.org/2000/svg">
<mask id="mask0_210_121" style="mask-type:alpha" maskUnits="userSpaceOnUse" x="0" y="0" width="26" height="26">
<rect width="26" height="26" fill="#D9D9D9"/>
</mask>
<g mask="url(#mask0_210_121)">
<path d="M-2.16667 32.5C-3.35833 32.5 -4.37847 32.0757 -5.22708 31.2271C-6.07569 30.3785 -6.5 29.3583 -6.5 28.1667V19.5H-2.16667V28.1667H6.5V32.5H-2.16667ZM19.5 32.5V28.1667H28.1667V19.5H32.5V28.1667C32.5 29.3583 32.0757 30.3785 31.2271 31.2271C30.3785 32.0757 29.3583 32.5 28.1667 32.5H19.5ZM-6.5 6.5V-2.16667C-6.5 -3.35833 -6.07569 -4.37847 -5.22708 -5.22708C-4.37847 -6.07569 -3.35833 -6.5 -2.16667 -6.5H6.5V-2.16667H-2.16667V6.5H-6.5ZM28.1667 6.5V-2.16667H19.5V-6.5H28.1667C29.3583 -6.5 30.3785 -6.07569 31.2271 -5.22708C32.0757 -4.37847 32.5 -3.35833 32.5 -2.16667V6.5H28.1667ZM11.375 16.25C12.7472 16.25 13.9028 15.7806 14.8417 14.8417C15.7806 13.9028 16.25 12.7472 16.25 11.375C16.25 10.0028 15.7806 8.84722 14.8417 7.90833C13.9028 6.96945 12.7472 6.5 11.375 6.5C10.0028 6.5 8.84722 6.96945 7.90833 7.90833C6.96945 8.84722 6.5 10.0028 6.5 11.375C6.5 12.7472 6.96945 13.9028 7.90833 14.8417C8.84722 15.7806 10.0028 16.25 11.375 16.25ZM21.8292 24.9167L16.1417 19.2292C15.4194 19.6986 14.6521 20.0417 13.8396 20.2583C13.0271 20.475 12.2056 20.5833 11.375 20.5833C8.81111 20.5833 6.63542 19.6896 4.84792 17.9021C3.06042 16.1146 2.16667 13.9389 2.16667 11.375C2.16667 8.81111 3.06042 6.63542 4.84792 4.84792C6.63542 3.06042 8.81111 2.16667 11.375 2.16667C13.9389 2.16667 16.1146 3.06042 17.9021 4.84792C19.6896 6.63542 20.5833 8.81111 20.5833 11.375C20.5833 12.2056 20.466 13.0271 20.2313 13.8396C19.9965 14.6521 19.6444 15.4194 19.175 16.1417L24.9167 21.8833L21.8292 24.9167Z" fill="#486780"/>
</g>
</svg>
