<svg width="38" height="38" viewBox="0 0 38 38" fill="none" xmlns="http://www.w3.org/2000/svg">
<mask id="mask0_210_133" style="mask-type:alpha" maskUnits="userSpaceOnUse" x="0" y="0" width="38" height="38">
<rect width="38" height="38" fill="#D9D9D9"/>
</mask>
<g mask="url(#mask0_210_133)">
<path d="M9.26252 27.075C10.6084 26.0458 12.1125 25.2344 13.775 24.6406C15.4375 24.0469 17.1792 23.75 19 23.75C20.8209 23.75 22.5625 24.0469 24.225 24.6406C25.8875 25.2344 27.3917 26.0458 28.7375 27.075C29.6611 25.993 30.3802 24.766 30.8948 23.3937C31.4094 22.0215 31.6667 20.5569 31.6667 19C31.6667 15.4903 30.433 12.5017 27.9656 10.0344C25.4983 7.567 22.5097 6.33332 19 6.33332C15.4903 6.33332 12.5018 7.567 10.0344 10.0344C7.56703 12.5017 6.33335 15.4903 6.33335 19C6.33335 20.5569 6.59065 22.0215 7.10523 23.3937C7.61981 24.766 8.33891 25.993 9.26252 27.075ZM19 20.5833C17.4431 20.5833 16.1302 20.0489 15.0615 18.9802C13.9927 17.9114 13.4584 16.5986 13.4584 15.0417C13.4584 13.4847 13.9927 12.1719 15.0615 11.1031C16.1302 10.0344 17.4431 9.49999 19 9.49999C20.557 9.49999 21.8698 10.0344 22.9386 11.1031C24.0073 12.1719 24.5417 13.4847 24.5417 15.0417C24.5417 16.5986 24.0073 17.9114 22.9386 18.9802C21.8698 20.0489 20.557 20.5833 19 20.5833ZM19 34.8333C16.8097 34.8333 14.7514 34.4177 12.825 33.5864C10.8986 32.7552 9.22294 31.6271 7.79794 30.2021C6.37294 28.7771 5.24481 27.1014 4.41356 25.175C3.58231 23.2486 3.16669 21.1903 3.16669 19C3.16669 16.8097 3.58231 14.7514 4.41356 12.825C5.24481 10.8986 6.37294 9.22291 7.79794 7.79791C9.22294 6.37291 10.8986 5.24478 12.825 4.41353C14.7514 3.58228 16.8097 3.16666 19 3.16666C21.1903 3.16666 23.2486 3.58228 25.175 4.41353C27.1014 5.24478 28.7771 6.37291 30.2021 7.79791C31.6271 9.22291 32.7552 10.8986 33.5865 12.825C34.4177 14.7514 34.8334 16.8097 34.8334 19C34.8334 21.1903 34.4177 23.2486 33.5865 25.175C32.7552 27.1014 31.6271 28.7771 30.2021 30.2021C28.7771 31.6271 27.1014 32.7552 25.175 33.5864C23.2486 34.4177 21.1903 34.8333 19 34.8333ZM19 31.6667C20.3986 31.6667 21.7181 31.4621 22.9584 31.0531C24.1986 30.6441 25.3334 30.0569 26.3625 29.2917C25.3334 28.5264 24.1986 27.9392 22.9584 27.5302C21.7181 27.1212 20.3986 26.9167 19 26.9167C17.6014 26.9167 16.282 27.1212 15.0417 27.5302C13.8014 27.9392 12.6667 28.5264 11.6375 29.2917C12.6667 30.0569 13.8014 30.6441 15.0417 31.0531C16.282 31.4621 17.6014 31.6667 19 31.6667ZM19 17.4167C19.6861 17.4167 20.2535 17.1924 20.7021 16.7437C21.1507 16.2951 21.375 15.7278 21.375 15.0417C21.375 14.3555 21.1507 13.7882 20.7021 13.3396C20.2535 12.891 19.6861 12.6667 19 12.6667C18.3139 12.6667 17.7465 12.891 17.2979 13.3396C16.8493 13.7882 16.625 14.3555 16.625 15.0417C16.625 15.7278 16.8493 16.2951 17.2979 16.7437C17.7465 17.1924 18.3139 17.4167 19 17.4167Z" fill="#BFCFDC"/>
</g>
</svg>
